<svg width="32" height="32" viewBox="0 0 32 32" fill="none" xmlns="http://www.w3.org/2000/svg">
<g clip-path="url(#clip0_49_2)">
<path d="M10.6828 2.8C12.4695 2.8 14.0095 3.36667 15.3028 4.5L13.6428 6.24C13.1495 5.86667 12.6895 5.6 12.2628 5.44C11.8495 5.26667 11.3695 5.18 10.8228 5.18C9.79615 5.18 8.97615 5.58667 8.36281 6.4C7.74948 7.2 7.44281 8.42 7.44281 10.06C7.44281 11.8333 7.67615 13.0933 8.14281 13.84C8.60948 14.5733 9.33615 14.94 10.3228 14.94C11.0161 14.94 11.6428 14.7867 12.2028 14.48V11.34H10.4028L10.0828 9.02H15.3828V15.88C14.6628 16.3467 13.8695 16.7067 13.0028 16.96C12.1361 17.2133 11.2695 17.34 10.4028 17.34C8.29615 17.34 6.70948 16.7267 5.64281 15.5C4.57615 14.26 4.04281 12.4467 4.04281 10.06C4.04281 8.54 4.32948 7.23333 4.90281 6.14C5.48948 5.04667 6.28281 4.22 7.28281 3.66C8.29615 3.08667 9.42948 2.8 10.6828 2.8ZM22.1334 11.7H20.8534V17H17.5734V3.14H22.1134C24.0068 3.14 25.4268 3.48667 26.3734 4.18C27.3334 4.87333 27.8134 5.93333 27.8134 7.36C27.8134 8.25333 27.6001 9 27.1734 9.6C26.7468 10.1867 26.0734 10.6867 25.1534 11.1L28.6734 17H24.9734L22.1334 11.7ZM20.8534 9.44H22.2334C22.9668 9.44 23.5134 9.27333 23.8734 8.94C24.2468 8.60667 24.4334 8.08 24.4334 7.36C24.4334 6.69333 24.2334 6.20667 23.8334 5.9C23.4468 5.59333 22.8468 5.44 22.0334 5.44H20.8534V9.44ZM12.427 29V15.14H20.687L20.347 17.48H15.707V21.16H19.747V23.5H15.707V29H12.427Z" fill="#ffffff"/>
</g>
<defs>
<clipPath id="clip0_49_2">
<rect width="32" height="32" fill="white"/>
</clipPath>
</defs>
</svg>
