<svg width="24" height="24" viewBox="0 0 24 24" fill="none" xmlns="http://www.w3.org/2000/svg">
<path d="M12.3179 22L17.0271 10H19.1606L24 22H21.7364L20.6697 18.85H15.6742L14.4514 22H12.3179ZM16.2466 17.1H19.9412L18.1199 12.25H18.0679L16.2466 17.1ZM4.12217 19L2.69118 17.625L7.99887 12.525C7.33974 11.7917 6.75434 11.0542 6.24265 10.3125C5.73096 9.57083 5.28431 8.8 4.90271 8H7.16629C7.46116 8.55 7.78639 9.07083 8.14197 9.5625C8.49755 10.0542 8.90083 10.5583 9.35181 11.075C10.1324 10.2917 10.7828 9.47917 11.3032 8.6375C11.8235 7.79583 12.2658 6.91667 12.6301 6H1V4H8.28507V2H10.3665V4H17.6516V6H14.7115C14.3299 7.15 13.8226 8.27917 13.1895 9.3875C12.5564 10.4958 11.7802 11.55 10.8609 12.55L13.4106 15.025L12.6301 17.05L9.32579 14L4.12217 19Z" fill="url(#paint0_linear_14_144)"/>
<defs>
<linearGradient id="paint0_linear_14_144" x1="12.5" y1="2" x2="12.5" y2="22" gradientUnits="userSpaceOnUse">
<stop stop-color="#DEC7C7"/>
<stop offset="1" stop-color="#C98484"/>
</linearGradient>
</defs>
</svg>
