<svg width="263" height="34" viewBox="0 0 263 34" fill="none" xmlns="http://www.w3.org/2000/svg">
<path d="M10.584 3.34399C12.0773 3.34399 13.4 3.57865 14.552 4.04799C15.7253 4.49599 16.8133 5.14665 17.816 5.99999L15.352 8.55999C14.5627 7.96265 13.816 7.52532 13.112 7.24799C12.4293 6.97065 11.6507 6.83199 10.776 6.83199C9.09067 6.83199 7.72534 7.50399 6.68 8.84799C5.656 10.1707 5.144 12.1973 5.144 14.928C5.144 17.808 5.53867 19.8773 6.328 21.136C7.13867 22.3733 8.38667 22.992 10.072 22.992C11.288 22.992 12.3867 22.7253 13.368 22.192V16.784H10.264L9.784 13.36H17.944V24.272C16.792 24.976 15.544 25.5307 14.2 25.936C12.8773 26.32 11.5333 26.512 10.168 26.512C6.904 26.512 4.42934 25.5307 2.744 23.568C1.05867 21.6053 0.216003 18.7147 0.216003 14.896C0.216003 12.4853 0.67467 10.4053 1.592 8.65598C2.50934 6.90665 3.74667 5.58399 5.304 4.68799C6.88267 3.79199 8.64267 3.34399 10.584 3.34399Z" fill="#141414"/>
<path d="M35.628 26H31.692L31.468 23.728C30.8707 24.6667 30.1453 25.3707 29.292 25.84C28.4387 26.288 27.4467 26.512 26.316 26.512C24.78 26.512 23.6067 26.0533 22.796 25.136C21.9853 24.1973 21.58 22.896 21.58 21.232V9.03999H26.124V20.656C26.124 21.552 26.2733 22.192 26.572 22.576C26.8707 22.9387 27.34 23.12 27.98 23.12C29.196 23.12 30.2307 22.384 31.084 20.912V9.03999H35.628V26Z" fill="#141414"/>
<path d="M44.659 9.03999V26H40.115V9.03999H44.659ZM42.355 0.303986C43.1657 0.303986 43.827 0.559985 44.339 1.07199C44.8723 1.56265 45.139 2.19199 45.139 2.95999C45.139 3.72799 44.8723 4.36799 44.339 4.87999C43.827 5.37065 43.1657 5.61599 42.355 5.61599C41.5443 5.61599 40.883 5.37065 40.371 4.87999C39.859 4.36799 39.603 3.72799 39.603 2.95999C39.603 2.19199 39.859 1.56265 40.371 1.07199C40.883 0.559985 41.5443 0.303986 42.355 0.303986Z" fill="#141414"/>
<path d="M53.3703 26.512C51.9836 26.512 50.9063 26.1173 50.1383 25.328C49.3703 24.5173 48.9863 23.376 48.9863 21.904V2.28798L53.5303 1.77599V21.776C53.5303 22.5227 53.8396 22.896 54.4583 22.896C54.7996 22.896 55.0983 22.832 55.3543 22.704L56.2823 25.936C55.4076 26.32 54.4369 26.512 53.3703 26.512Z" fill="#141414"/>
<path d="M68.087 8.52799C69.559 8.52799 70.711 8.98665 71.543 9.90399C72.3963 10.8 72.823 12.048 72.823 13.648V26H68.279V14.416C68.279 13.4987 68.119 12.8587 67.799 12.496C67.479 12.112 67.0203 11.92 66.423 11.92C65.2283 11.92 64.1403 12.6987 63.159 14.256V26H58.615V2.28798L63.159 1.80799V10.96C63.8417 10.1493 64.5777 9.54132 65.367 9.13599C66.1777 8.73065 67.0843 8.52799 68.087 8.52799Z" fill="#141414"/>
<path d="M91.4823 17.136C91.4823 17.3493 91.4503 17.936 91.3863 18.896H80.7943C80.9436 20.432 81.3596 21.52 82.0423 22.16C82.7249 22.8 83.6529 23.12 84.8263 23.12C85.5516 23.12 86.2343 23.0027 86.8743 22.768C87.5143 22.5333 88.2076 22.16 88.9543 21.648L90.8423 24.208C88.9436 25.744 86.7996 26.512 84.4103 26.512C81.7436 26.512 79.6956 25.712 78.2663 24.112C76.8369 22.512 76.1223 20.3467 76.1223 17.616C76.1223 15.888 76.4209 14.3413 77.0182 12.976C77.6369 11.5893 78.5223 10.5013 79.6743 9.71199C80.8476 8.92265 82.2343 8.52799 83.8343 8.52799C86.2449 8.52799 88.1223 9.28532 89.4663 10.8C90.8103 12.3147 91.4823 14.4267 91.4823 17.136ZM86.9703 15.856C86.9703 13.04 85.9569 11.632 83.9303 11.632C82.9916 11.632 82.2556 11.984 81.7223 12.688C81.2103 13.3707 80.9009 14.4907 80.7943 16.048H86.9703V15.856Z" fill="#141414"/>
<path d="M103.539 8.55999C104.051 8.55999 104.617 8.64532 105.235 8.81599L104.467 13.2C103.87 13.0507 103.369 12.976 102.963 12.976C101.961 12.976 101.182 13.328 100.627 14.032C100.073 14.736 99.6353 15.8027 99.3153 17.232V26H94.7713V9.03999H98.7073L99.1233 12.336C99.5286 11.1413 100.115 10.2133 100.883 9.55199C101.673 8.89065 102.558 8.55999 103.539 8.55999Z" fill="#141414"/>
<path d="M125.826 8.52799C127.17 8.52799 128.247 8.98665 129.058 9.90399C129.89 10.8213 130.306 12.0693 130.306 13.648V26H125.762V14.416C125.762 12.752 125.207 11.92 124.098 11.92C123.501 11.92 122.978 12.112 122.53 12.496C122.082 12.88 121.623 13.4773 121.154 14.288V26H116.61V14.416C116.61 12.752 116.055 11.92 114.946 11.92C114.349 11.92 113.826 12.1227 113.378 12.528C112.93 12.912 112.482 13.4987 112.034 14.288V26H107.49V9.03999H111.426L111.778 11.152C112.418 10.2987 113.133 9.64799 113.922 9.19999C114.733 8.75199 115.661 8.52799 116.706 8.52799C117.666 8.52799 118.498 8.77332 119.202 9.26399C119.906 9.73332 120.418 10.4053 120.738 11.28C121.442 10.3627 122.199 9.67999 123.01 9.23199C123.842 8.76265 124.781 8.52799 125.826 8.52799Z" fill="#141414"/>
<path d="M148.951 17.136C148.951 17.3493 148.919 17.936 148.855 18.896H138.263C138.412 20.432 138.828 21.52 139.511 22.16C140.194 22.8 141.122 23.12 142.295 23.12C143.02 23.12 143.703 23.0027 144.343 22.768C144.983 22.5333 145.676 22.16 146.423 21.648L148.311 24.208C146.412 25.744 144.268 26.512 141.879 26.512C139.212 26.512 137.164 25.712 135.735 24.112C134.306 22.512 133.591 20.3467 133.591 17.616C133.591 15.888 133.89 14.3413 134.487 12.976C135.106 11.5893 135.991 10.5013 137.143 9.71199C138.316 8.92265 139.703 8.52799 141.303 8.52799C143.714 8.52799 145.591 9.28532 146.935 10.8C148.279 12.3147 148.951 14.4267 148.951 17.136ZM144.439 15.856C144.439 13.04 143.426 11.632 141.399 11.632C140.46 11.632 139.724 11.984 139.191 12.688C138.679 13.3707 138.37 14.4907 138.263 16.048H144.439V15.856Z" fill="#141414"/>
<path d="M160.148 26V3.85599H173.012L172.501 7.27999H164.853V13.552H171.508V16.976H164.853V26H160.148Z" fill="#141414"/>
<path d="M181.689 8.52799C184.227 8.52799 186.211 9.32799 187.641 10.928C189.07 12.5067 189.785 14.704 189.785 17.52C189.785 19.312 189.454 20.8907 188.793 22.256C188.153 23.6 187.214 24.6453 185.977 25.392C184.761 26.1387 183.321 26.512 181.657 26.512C179.118 26.512 177.123 25.7227 175.673 24.144C174.243 22.544 173.529 20.336 173.529 17.52C173.529 15.728 173.849 14.16 174.489 12.816C175.15 11.4507 176.089 10.3947 177.305 9.64799C178.542 8.90132 180.003 8.52799 181.689 8.52799ZM181.689 11.92C180.537 11.92 179.672 12.3787 179.096 13.296C178.542 14.192 178.264 15.6 178.264 17.52C178.264 19.44 178.542 20.8587 179.096 21.776C179.672 22.672 180.526 23.12 181.657 23.12C182.787 23.12 183.63 22.672 184.185 21.776C184.761 20.8587 185.049 19.44 185.049 17.52C185.049 15.6 184.771 14.192 184.217 13.296C183.662 12.3787 182.819 11.92 181.689 11.92Z" fill="#141414"/>
<path d="M208.408 9.96799C207.299 10.3947 205.667 10.608 203.512 10.608C204.579 11.0773 205.368 11.664 205.88 12.368C206.392 13.0507 206.648 13.9147 206.648 14.96C206.648 16.048 206.36 17.0293 205.784 17.904C205.229 18.7573 204.419 19.4293 203.352 19.92C202.307 20.4107 201.08 20.656 199.672 20.656C198.925 20.656 198.264 20.5813 197.688 20.432C197.261 20.7093 197.048 21.0827 197.048 21.552C197.048 21.8933 197.176 22.1707 197.432 22.384C197.709 22.576 198.232 22.672 199 22.672H201.592C202.851 22.672 203.949 22.8853 204.888 23.312C205.848 23.7173 206.584 24.2933 207.096 25.04C207.629 25.7653 207.896 26.5973 207.896 27.536C207.896 29.264 207.149 30.608 205.656 31.568C204.184 32.5493 202.051 33.04 199.256 33.04C197.251 33.04 195.661 32.8267 194.488 32.4C193.336 31.9947 192.525 31.3973 192.056 30.608C191.587 29.8187 191.352 28.8267 191.352 27.632H195.416C195.416 28.1867 195.523 28.624 195.736 28.944C195.949 29.2853 196.333 29.5307 196.888 29.68C197.464 29.8507 198.285 29.936 199.352 29.936C200.824 29.936 201.848 29.7547 202.424 29.392C203.021 29.0293 203.32 28.5173 203.32 27.856C203.32 27.2587 203.096 26.8 202.648 26.48C202.2 26.16 201.539 26 200.664 26H198.168C196.483 26 195.224 25.6907 194.392 25.072C193.56 24.432 193.144 23.632 193.144 22.672C193.144 22.0747 193.315 21.4987 193.656 20.944C194.019 20.368 194.509 19.888 195.128 19.504C194.083 18.928 193.315 18.256 192.824 17.488C192.355 16.6987 192.12 15.76 192.12 14.672C192.12 13.4347 192.419 12.3573 193.016 11.44C193.635 10.5013 194.488 9.78665 195.576 9.29599C196.685 8.78399 197.944 8.52799 199.352 8.52799C201.101 8.57065 202.541 8.42132 203.672 8.07999C204.803 7.73865 206.008 7.20532 207.288 6.47999L208.408 9.96799ZM199.448 11.568C198.595 11.568 197.912 11.8453 197.4 12.4C196.909 12.9333 196.664 13.6693 196.664 14.608C196.664 15.568 196.909 16.3253 197.4 16.88C197.912 17.4347 198.605 17.712 199.48 17.712C200.397 17.712 201.091 17.4453 201.56 16.912C202.029 16.3787 202.264 15.5893 202.264 14.544C202.264 12.56 201.325 11.568 199.448 11.568Z" fill="#141414"/>
<path d="M222.887 21.296C222.887 21.9573 222.984 22.448 223.176 22.768C223.368 23.0667 223.687 23.2907 224.135 23.44L223.176 26.448C222.173 26.3627 221.352 26.128 220.712 25.744C220.093 25.36 219.613 24.7627 219.271 23.952C218.162 25.6587 216.466 26.512 214.184 26.512C212.498 26.512 211.154 26.032 210.152 25.072C209.17 24.0907 208.68 22.8213 208.68 21.264C208.68 19.408 209.352 17.9893 210.696 17.008C212.04 16.0267 213.97 15.536 216.488 15.536H218.439V14.704C218.439 13.6587 218.205 12.9333 217.736 12.528C217.266 12.1227 216.488 11.92 215.4 11.92C214.205 11.92 212.712 12.2187 210.92 12.816L209.896 9.77599C212.008 8.94399 214.098 8.52799 216.168 8.52799C218.472 8.52799 220.168 9.02932 221.256 10.032C222.344 11.0133 222.887 12.4853 222.887 14.448V21.296ZM215.432 23.248C216.712 23.248 217.714 22.6187 218.439 21.36V18.128H216.936C214.482 18.128 213.256 19.0453 213.256 20.88C213.256 21.6267 213.437 22.2133 213.799 22.64C214.183 23.0453 214.728 23.248 215.432 23.248Z" fill="#141414"/>
<path d="M232.747 8.52799C235.136 8.52799 237.184 9.21065 238.891 10.576L237.163 13.168C235.734 12.272 234.326 11.824 232.939 11.824C232.192 11.824 231.616 11.9627 231.211 12.24C230.806 12.5173 230.603 12.8907 230.603 13.36C230.603 13.7013 230.688 13.9893 230.859 14.224C231.051 14.4587 231.392 14.6827 231.883 14.896C232.395 15.1093 233.152 15.3653 234.155 15.664C235.947 16.1547 237.28 16.816 238.155 17.648C239.03 18.4587 239.467 19.5787 239.467 21.008C239.467 22.1387 239.136 23.12 238.475 23.952C237.835 24.784 236.96 25.424 235.851 25.872C234.742 26.2987 233.504 26.512 232.139 26.512C230.71 26.512 229.408 26.2987 228.235 25.872C227.062 25.424 226.059 24.816 225.227 24.048L227.467 21.552C228.896 22.6613 230.411 23.216 232.011 23.216C232.864 23.216 233.536 23.056 234.027 22.736C234.539 22.3947 234.795 21.936 234.795 21.36C234.795 20.912 234.699 20.56 234.507 20.304C234.315 20.048 233.963 19.8133 233.451 19.6C232.939 19.3653 232.139 19.0987 231.051 18.8C229.344 18.3307 228.075 17.6693 227.243 16.816C226.432 15.9413 226.027 14.864 226.027 13.584C226.027 12.624 226.304 11.76 226.859 10.992C227.414 10.224 228.192 9.62665 229.195 9.19999C230.219 8.75199 231.403 8.52799 232.747 8.52799Z" fill="#141414"/>
<path d="M247.81 8.52799C250.199 8.52799 252.247 9.21065 253.954 10.576L252.226 13.168C250.796 12.272 249.388 11.824 248.002 11.824C247.255 11.824 246.679 11.9627 246.273 12.24C245.868 12.5173 245.665 12.8907 245.665 13.36C245.665 13.7013 245.751 13.9893 245.922 14.224C246.114 14.4587 246.455 14.6827 246.946 14.896C247.458 15.1093 248.215 15.3653 249.217 15.664C251.009 16.1547 252.343 16.816 253.217 17.648C254.092 18.4587 254.53 19.5787 254.53 21.008C254.53 22.1387 254.199 23.12 253.538 23.952C252.898 24.784 252.023 25.424 250.913 25.872C249.804 26.2987 248.567 26.512 247.202 26.512C245.772 26.512 244.471 26.2987 243.298 25.872C242.124 25.424 241.122 24.816 240.29 24.048L242.53 21.552C243.959 22.6613 245.474 23.216 247.074 23.216C247.927 23.216 248.599 23.056 249.09 22.736C249.602 22.3947 249.857 21.936 249.857 21.36C249.857 20.912 249.762 20.56 249.57 20.304C249.378 20.048 249.026 19.8133 248.514 19.6C248.002 19.3653 247.202 19.0987 246.114 18.8C244.407 18.3307 243.137 17.6693 242.305 16.816C241.495 15.9413 241.09 14.864 241.09 13.584C241.09 12.624 241.367 11.76 241.922 10.992C242.476 10.224 243.255 9.62665 244.258 9.19999C245.282 8.75199 246.466 8.52799 247.81 8.52799Z" fill="#141414"/>
<path d="M262.034 9.03999V26H257.49V9.03999H262.034ZM259.73 0.303986C260.541 0.303986 261.202 0.559985 261.714 1.07199C262.247 1.56265 262.514 2.19199 262.514 2.95999C262.514 3.72799 262.247 4.36799 261.714 4.87999C261.202 5.37065 260.541 5.61599 259.73 5.61599C258.919 5.61599 258.258 5.37065 257.746 4.87999C257.234 4.36799 256.978 3.72799 256.978 2.95999C256.978 2.19199 257.234 1.56265 257.746 1.07199C258.258 0.559985 258.919 0.303986 259.73 0.303986Z" fill="#141414"/>
</svg>
