<svg width="24" height="24" viewBox="0 0 24 24" fill="none" xmlns="http://www.w3.org/2000/svg">
<path d="M0 24V21.35C0 20.0644 0.345833 19.018 1.0375 18.2108C1.72917 17.4036 2.63647 17 3.7594 17C3.96215 17 4.15711 17.0083 4.34427 17.025C4.53142 17.0417 4.71667 17.0775 4.9 17.1326C4.76667 17.7109 4.66667 18.2969 4.6 18.8909C4.53333 19.4848 4.5 20.1045 4.5 20.75V24H0ZM6 24V20.75C6 19.6833 6.14583 18.7083 6.4375 17.825C6.72917 16.9417 7.14167 16.1667 7.675 15.5C8.20833 14.8333 8.84583 14.3333 9.5875 14C10.3292 13.6667 11.1333 13.5 12 13.5C12.8833 13.5 13.6958 13.6667 14.4375 14C15.1792 14.3333 15.8167 14.8333 16.35 15.5C16.8833 16.1667 17.2917 16.9417 17.575 17.825C17.8583 18.7083 18 19.6833 18 20.75V24H6ZM19.5 24V20.75C19.5 20.088 19.4708 19.4641 19.4125 18.8785C19.3542 18.2928 19.2583 17.7121 19.125 17.1364C19.3083 17.0788 19.4931 17.0417 19.6793 17.025C19.8655 17.0083 20.0557 17 20.25 17C21.375 17 22.2812 17.3961 22.9688 18.1884C23.6562 18.9807 24 20.0345 24 21.35V24H19.5ZM7.5 21H16.5V20.7C16.5 19.4667 16.0792 18.4583 15.2375 17.675C14.3958 16.8917 13.3167 16.5 12 16.5C10.6833 16.5 9.60417 16.8917 8.7625 17.675C7.92083 18.4583 7.5 19.4833 7.5 20.75V21ZM3.73918 15.5C3.26306 15.5 2.85417 15.1573 2.5125 14.4719C2.17083 13.7865 2 12.9625 2 12C2 11.0333 2.17135 10.2083 2.51405 9.525C2.85677 8.84167 3.26875 8.5 3.75 8.5C4.23333 8.5 4.64583 8.84167 4.9875 9.525C5.32917 10.2083 5.5 11.0406 5.5 12.0217C5.5 12.9739 5.32917 13.7917 4.9875 14.475C4.64583 15.1583 4.22972 15.5 3.73918 15.5ZM20.2392 15.5C19.7631 15.5 19.3542 15.1573 19.0125 14.4719C18.6708 13.7865 18.5 12.9625 18.5 12C18.5 11.0333 18.6714 10.2083 19.0141 9.525C19.3568 8.84167 19.7687 8.5 20.25 8.5C20.7333 8.5 21.1458 8.84167 21.4875 9.525C21.8292 10.2083 22 11.0406 22 12.0217C22 12.9739 21.8292 13.7917 21.4875 14.475C21.1458 15.1583 20.7297 15.5 20.2392 15.5ZM12 12C11.1667 12 10.4583 11.4167 9.875 10.25C9.29167 9.08333 9 7.66667 9 6C9 4.3 9.29167 2.875 9.875 1.725C10.4583 0.575 11.1667 0 12 0C12.85 0 13.5625 0.575 14.1375 1.725C14.7125 2.875 15 4.3 15 6C15 7.66667 14.7125 9.08333 14.1375 10.25C13.5625 11.4167 12.85 12 12 12ZM12.0088 9C12.4363 9 12.7917 8.71082 13.075 8.13245C13.3583 7.55408 13.5 6.83742 13.5 5.98245C13.5 5.12748 13.3571 4.41667 13.0713 3.85C12.7855 3.28333 12.4313 3 12.0088 3C11.5863 3 11.2292 3.28582 10.9375 3.85745C10.6458 4.42908 10.5 5.13742 10.5 5.98245C10.5 6.82748 10.6446 7.54167 10.9338 8.125C11.223 8.70833 11.5813 9 12.0088 9Z" fill="url(#paint0_linear_14_159)"/>
<defs>
<linearGradient id="paint0_linear_14_159" x1="12" y1="0" x2="12" y2="24" gradientUnits="userSpaceOnUse">
<stop stop-color="#DEC7C7"/>
<stop offset="1" stop-color="#C98484"/>
</linearGradient>
</defs>
</svg>
