<svg width="14" height="24" viewBox="0 0 14 24" fill="none" xmlns="http://www.w3.org/2000/svg">
<path d="M1.5 24C1.1 24 0.75 23.8364 0.45 23.5091C0.15 23.1818 0 22.8 0 22.3636V1.63636C0 1.2 0.15 0.818182 0.45 0.490909C0.75 0.163636 1.1 0 1.5 0H12.5C12.9 0 13.25 0.163636 13.55 0.490909C13.85 0.818182 14 1.2 14 1.63636V22.3636C14 22.8 13.85 23.1818 13.55 23.5091C13.25 23.8364 12.9 24 12.5 24H1.5ZM1.5 21.5455V22.3636H12.5V21.5455H1.5ZM1.5 19.9091H12.5V4.09091H1.5V19.9091ZM1.5 2.45455H12.5V1.63636H1.5V2.45455Z" fill="url(#paint0_linear_14_161)"/>
<defs>
<linearGradient id="paint0_linear_14_161" x1="7" y1="0" x2="7" y2="24" gradientUnits="userSpaceOnUse">
<stop stop-color="#DEC7C7"/>
<stop offset="1" stop-color="#C98484"/>
</linearGradient>
</defs>
</svg>
